<mxfile host="app.diagrams.net" agent="Mozilla/5.0 (Macintosh; Intel Mac OS X 10_15_7) AppleWebKit/537.36 (KHTML, like Gecko) Chrome/131.0.0.0 Safari/537.36" version="25.0.3">
  <diagram name="Page-1" id="r4NMVydD2Xu7vVgViuR1">
    <mxGraphModel dx="4140" dy="9730" grid="1" gridSize="10" guides="1" tooltips="1" connect="1" arrows="1" fold="1" page="1" pageScale="1" pageWidth="3000" pageHeight="7000" math="0" shadow="0">
      <root>
        <mxCell id="0" />
        <mxCell id="1" parent="0" />
        <mxCell id="pb-QOjSHvFlhCj56YCVK-3" value="&lt;font style=&quot;font-size: 39px;&quot;&gt;&lt;b&gt;Push to main on Github&lt;/b&gt;&lt;/font&gt;" style="shape=process;whiteSpace=wrap;html=1;backgroundOutline=1;sketch=1;curveFitting=1;jiggle=2;fillColor=#dae8fc;strokeColor=#6c8ebf;" vertex="1" parent="1">
          <mxGeometry x="160" y="-6770" width="790" height="190" as="geometry" />
        </mxCell>
        <mxCell id="pb-QOjSHvFlhCj56YCVK-32" style="edgeStyle=orthogonalEdgeStyle;rounded=0;orthogonalLoop=1;jettySize=auto;html=1;exitX=0.5;exitY=1;exitDx=0;exitDy=0;entryX=0.5;entryY=0;entryDx=0;entryDy=0;strokeWidth=5;sketch=1;curveFitting=1;jiggle=2;flowAnimation=1;" edge="1" parent="1" source="pb-QOjSHvFlhCj56YCVK-5" target="pb-QOjSHvFlhCj56YCVK-6">
          <mxGeometry relative="1" as="geometry" />
        </mxCell>
        <mxCell id="pb-QOjSHvFlhCj56YCVK-5" value="&lt;font style=&quot;font-size: 30px;&quot;&gt;0. Checkout the repository with full history&lt;/font&gt;" style="shape=process;whiteSpace=wrap;html=1;backgroundOutline=1;sketch=1;curveFitting=1;jiggle=2;" vertex="1" parent="1">
          <mxGeometry x="150" y="-6160" width="540" height="180" as="geometry" />
        </mxCell>
        <mxCell id="pb-QOjSHvFlhCj56YCVK-34" style="edgeStyle=orthogonalEdgeStyle;rounded=0;orthogonalLoop=1;jettySize=auto;html=1;strokeWidth=5;sketch=1;curveFitting=1;jiggle=2;" edge="1" parent="1" source="pb-QOjSHvFlhCj56YCVK-6" target="pb-QOjSHvFlhCj56YCVK-7">
          <mxGeometry relative="1" as="geometry" />
        </mxCell>
        <mxCell id="pb-QOjSHvFlhCj56YCVK-6" value="&lt;font style=&quot;font-size: 30px;&quot;&gt;1. Setup QEMU for ARM64&lt;/font&gt;" style="shape=process;whiteSpace=wrap;html=1;backgroundOutline=1;sketch=1;curveFitting=1;jiggle=2;" vertex="1" parent="1">
          <mxGeometry x="150" y="-5890" width="540" height="180" as="geometry" />
        </mxCell>
        <mxCell id="pb-QOjSHvFlhCj56YCVK-35" style="edgeStyle=orthogonalEdgeStyle;rounded=0;orthogonalLoop=1;jettySize=auto;html=1;exitX=0.5;exitY=1;exitDx=0;exitDy=0;strokeWidth=5;sketch=1;curveFitting=1;jiggle=2;" edge="1" parent="1" source="pb-QOjSHvFlhCj56YCVK-7" target="pb-QOjSHvFlhCj56YCVK-9">
          <mxGeometry relative="1" as="geometry" />
        </mxCell>
        <mxCell id="pb-QOjSHvFlhCj56YCVK-7" value="&lt;font style=&quot;font-size: 30px;&quot;&gt;2. Clear NuGet Caches&lt;/font&gt;" style="shape=process;whiteSpace=wrap;html=1;backgroundOutline=1;sketch=1;curveFitting=1;jiggle=2;" vertex="1" parent="1">
          <mxGeometry x="150" y="-5610" width="540" height="180" as="geometry" />
        </mxCell>
        <mxCell id="pb-QOjSHvFlhCj56YCVK-36" style="edgeStyle=orthogonalEdgeStyle;rounded=0;orthogonalLoop=1;jettySize=auto;html=1;exitX=0.5;exitY=1;exitDx=0;exitDy=0;strokeWidth=5;sketch=1;curveFitting=1;jiggle=2;" edge="1" parent="1" source="pb-QOjSHvFlhCj56YCVK-9" target="pb-QOjSHvFlhCj56YCVK-10">
          <mxGeometry relative="1" as="geometry" />
        </mxCell>
        <mxCell id="pb-QOjSHvFlhCj56YCVK-9" value="&lt;font style=&quot;font-size: 30px;&quot;&gt;3. Set version number&amp;nbsp;&lt;/font&gt;&lt;div&gt;&lt;font style=&quot;font-size: 30px;&quot;&gt;based on commit&lt;/font&gt;&lt;/div&gt;" style="shape=process;whiteSpace=wrap;html=1;backgroundOutline=1;sketch=1;curveFitting=1;jiggle=2;" vertex="1" parent="1">
          <mxGeometry x="150" y="-5330" width="540" height="180" as="geometry" />
        </mxCell>
        <mxCell id="pb-QOjSHvFlhCj56YCVK-37" style="edgeStyle=orthogonalEdgeStyle;rounded=0;orthogonalLoop=1;jettySize=auto;html=1;strokeWidth=5;sketch=1;curveFitting=1;jiggle=2;" edge="1" parent="1" source="pb-QOjSHvFlhCj56YCVK-10" target="pb-QOjSHvFlhCj56YCVK-11">
          <mxGeometry relative="1" as="geometry" />
        </mxCell>
        <mxCell id="pb-QOjSHvFlhCj56YCVK-10" value="&lt;font style=&quot;font-size: 30px;&quot;&gt;4. Set up Buildx&amp;nbsp;with&amp;nbsp;&lt;/font&gt;&lt;div&gt;&lt;font style=&quot;font-size: 30px;&quot;&gt;docker-container driver&lt;/font&gt;&lt;/div&gt;" style="shape=process;whiteSpace=wrap;html=1;backgroundOutline=1;sketch=1;curveFitting=1;jiggle=2;" vertex="1" parent="1">
          <mxGeometry x="150" y="-5040" width="540" height="180" as="geometry" />
        </mxCell>
        <mxCell id="pb-QOjSHvFlhCj56YCVK-38" style="edgeStyle=orthogonalEdgeStyle;rounded=0;orthogonalLoop=1;jettySize=auto;html=1;entryX=0.5;entryY=0;entryDx=0;entryDy=0;strokeWidth=5;sketch=1;curveFitting=1;jiggle=2;" edge="1" parent="1" source="pb-QOjSHvFlhCj56YCVK-11" target="pb-QOjSHvFlhCj56YCVK-13">
          <mxGeometry relative="1" as="geometry" />
        </mxCell>
        <mxCell id="pb-QOjSHvFlhCj56YCVK-11" value="&lt;font style=&quot;font-size: 30px;&quot;&gt;5.&amp;nbsp;Log in to Docker Hub&lt;/font&gt;" style="shape=process;whiteSpace=wrap;html=1;backgroundOutline=1;sketch=1;curveFitting=1;jiggle=2;" vertex="1" parent="1">
          <mxGeometry x="150" y="-4750" width="540" height="180" as="geometry" />
        </mxCell>
        <mxCell id="pb-QOjSHvFlhCj56YCVK-39" style="edgeStyle=orthogonalEdgeStyle;rounded=0;orthogonalLoop=1;jettySize=auto;html=1;exitX=0.5;exitY=1;exitDx=0;exitDy=0;entryX=0.5;entryY=0;entryDx=0;entryDy=0;strokeWidth=5;sketch=1;curveFitting=1;jiggle=2;" edge="1" parent="1" source="pb-QOjSHvFlhCj56YCVK-13" target="pb-QOjSHvFlhCj56YCVK-14">
          <mxGeometry relative="1" as="geometry" />
        </mxCell>
        <mxCell id="pb-QOjSHvFlhCj56YCVK-13" value="&lt;font style=&quot;font-size: 30px;&quot;&gt;6.&amp;nbsp;Build and Push&amp;nbsp;&lt;/font&gt;&lt;div&gt;&lt;font style=&quot;font-size: 30px;&quot;&gt;API Docker image for ARM&lt;/font&gt;&lt;/div&gt;" style="shape=process;whiteSpace=wrap;html=1;backgroundOutline=1;sketch=1;curveFitting=1;jiggle=2;" vertex="1" parent="1">
          <mxGeometry x="150" y="-4450" width="540" height="180" as="geometry" />
        </mxCell>
        <mxCell id="pb-QOjSHvFlhCj56YCVK-40" style="edgeStyle=orthogonalEdgeStyle;rounded=0;orthogonalLoop=1;jettySize=auto;html=1;entryX=0;entryY=0.5;entryDx=0;entryDy=0;strokeWidth=5;sketch=1;curveFitting=1;jiggle=2;" edge="1" parent="1" source="pb-QOjSHvFlhCj56YCVK-14" target="pb-QOjSHvFlhCj56YCVK-16">
          <mxGeometry relative="1" as="geometry" />
        </mxCell>
        <mxCell id="pb-QOjSHvFlhCj56YCVK-14" value="&lt;font style=&quot;font-size: 30px;&quot;&gt;7.&amp;nbsp;Build and Push&amp;nbsp;&lt;/font&gt;&lt;div&gt;&lt;font style=&quot;font-size: 30px;&quot;&gt;Frontend Docker image for ARM&lt;/font&gt;&lt;/div&gt;" style="shape=process;whiteSpace=wrap;html=1;backgroundOutline=1;sketch=1;curveFitting=1;jiggle=2;" vertex="1" parent="1">
          <mxGeometry x="150" y="-4140" width="540" height="180" as="geometry" />
        </mxCell>
        <mxCell id="pb-QOjSHvFlhCj56YCVK-16" value="&lt;font style=&quot;font-size: 30px;&quot;&gt;8.&amp;nbsp;Set up kubectl&lt;/font&gt;" style="shape=process;whiteSpace=wrap;html=1;backgroundOutline=1;sketch=1;curveFitting=1;jiggle=2;rounded=0;" vertex="1" parent="1">
          <mxGeometry x="910" y="-4140" width="540" height="180" as="geometry" />
        </mxCell>
        <mxCell id="pb-QOjSHvFlhCj56YCVK-17" value="&lt;font style=&quot;font-size: 30px;&quot;&gt;9.&amp;nbsp;Configure Kubernetes&lt;/font&gt;" style="shape=process;whiteSpace=wrap;html=1;backgroundOutline=1;sketch=1;curveFitting=1;jiggle=2;" vertex="1" parent="1">
          <mxGeometry x="900" y="-4450" width="540" height="180" as="geometry" />
        </mxCell>
        <mxCell id="pb-QOjSHvFlhCj56YCVK-47" style="edgeStyle=orthogonalEdgeStyle;rounded=0;orthogonalLoop=1;jettySize=auto;html=1;exitX=0.5;exitY=0;exitDx=0;exitDy=0;entryX=0.5;entryY=1;entryDx=0;entryDy=0;strokeWidth=5;sketch=1;curveFitting=1;jiggle=2;" edge="1" parent="1" source="pb-QOjSHvFlhCj56YCVK-18" target="pb-QOjSHvFlhCj56YCVK-19">
          <mxGeometry relative="1" as="geometry" />
        </mxCell>
        <mxCell id="pb-QOjSHvFlhCj56YCVK-18" value="&lt;font style=&quot;font-size: 30px;&quot;&gt;10.&amp;nbsp;Lint YAML Files&lt;/font&gt;" style="shape=process;whiteSpace=wrap;html=1;backgroundOutline=1;sketch=1;curveFitting=1;jiggle=2;" vertex="1" parent="1">
          <mxGeometry x="900" y="-4750" width="540" height="180" as="geometry" />
        </mxCell>
        <mxCell id="pb-QOjSHvFlhCj56YCVK-48" style="edgeStyle=orthogonalEdgeStyle;rounded=0;orthogonalLoop=1;jettySize=auto;html=1;exitX=0.5;exitY=0;exitDx=0;exitDy=0;entryX=0.5;entryY=1;entryDx=0;entryDy=0;strokeWidth=5;sketch=1;curveFitting=1;jiggle=2;" edge="1" parent="1" source="pb-QOjSHvFlhCj56YCVK-19" target="pb-QOjSHvFlhCj56YCVK-20">
          <mxGeometry relative="1" as="geometry" />
        </mxCell>
        <mxCell id="pb-QOjSHvFlhCj56YCVK-19" value="&lt;font style=&quot;font-size: 30px;&quot;&gt;11.&amp;nbsp;Replace Placeholder with Image Tag for API Deployment&lt;/font&gt;" style="shape=process;whiteSpace=wrap;html=1;backgroundOutline=1;sketch=1;curveFitting=1;jiggle=2;" vertex="1" parent="1">
          <mxGeometry x="900" y="-5040" width="540" height="180" as="geometry" />
        </mxCell>
        <mxCell id="pb-QOjSHvFlhCj56YCVK-49" style="edgeStyle=orthogonalEdgeStyle;rounded=0;orthogonalLoop=1;jettySize=auto;html=1;exitX=0.5;exitY=0;exitDx=0;exitDy=0;entryX=0.5;entryY=1;entryDx=0;entryDy=0;strokeWidth=5;sketch=1;curveFitting=1;jiggle=2;" edge="1" parent="1" source="pb-QOjSHvFlhCj56YCVK-20" target="pb-QOjSHvFlhCj56YCVK-21">
          <mxGeometry relative="1" as="geometry" />
        </mxCell>
        <mxCell id="pb-QOjSHvFlhCj56YCVK-20" value="&lt;font style=&quot;font-size: 30px;&quot;&gt;12. Replace Placeholder with Image Tag for Frontend Deployment&lt;/font&gt;" style="shape=process;whiteSpace=wrap;html=1;backgroundOutline=1;sketch=1;curveFitting=1;jiggle=2;" vertex="1" parent="1">
          <mxGeometry x="900" y="-5330" width="540" height="180" as="geometry" />
        </mxCell>
        <mxCell id="pb-QOjSHvFlhCj56YCVK-50" style="edgeStyle=orthogonalEdgeStyle;rounded=0;orthogonalLoop=1;jettySize=auto;html=1;exitX=0.5;exitY=0;exitDx=0;exitDy=0;entryX=0.5;entryY=1;entryDx=0;entryDy=0;strokeWidth=5;sketch=1;curveFitting=1;jiggle=2;" edge="1" parent="1" source="pb-QOjSHvFlhCj56YCVK-21" target="pb-QOjSHvFlhCj56YCVK-22">
          <mxGeometry relative="1" as="geometry" />
        </mxCell>
        <mxCell id="pb-QOjSHvFlhCj56YCVK-21" value="&lt;font style=&quot;font-size: 30px;&quot;&gt;13.&amp;nbsp;Validate API Deployment YAML&lt;/font&gt;" style="shape=process;whiteSpace=wrap;html=1;backgroundOutline=1;sketch=1;curveFitting=1;jiggle=2;" vertex="1" parent="1">
          <mxGeometry x="900" y="-5610" width="540" height="180" as="geometry" />
        </mxCell>
        <mxCell id="pb-QOjSHvFlhCj56YCVK-51" style="edgeStyle=orthogonalEdgeStyle;rounded=0;orthogonalLoop=1;jettySize=auto;html=1;exitX=0.5;exitY=0;exitDx=0;exitDy=0;entryX=0.5;entryY=1;entryDx=0;entryDy=0;strokeWidth=5;sketch=1;curveFitting=1;jiggle=2;" edge="1" parent="1" source="pb-QOjSHvFlhCj56YCVK-22" target="pb-QOjSHvFlhCj56YCVK-23">
          <mxGeometry relative="1" as="geometry" />
        </mxCell>
        <mxCell id="pb-QOjSHvFlhCj56YCVK-22" value="&lt;font style=&quot;font-size: 30px;&quot;&gt;14.&amp;nbsp;Validate Frontend Deployment YAML&lt;/font&gt;" style="shape=process;whiteSpace=wrap;html=1;backgroundOutline=1;sketch=1;curveFitting=1;jiggle=2;" vertex="1" parent="1">
          <mxGeometry x="900" y="-5890" width="540" height="180" as="geometry" />
        </mxCell>
        <mxCell id="pb-QOjSHvFlhCj56YCVK-52" style="edgeStyle=orthogonalEdgeStyle;rounded=0;orthogonalLoop=1;jettySize=auto;html=1;exitX=1;exitY=0.5;exitDx=0;exitDy=0;entryX=0;entryY=0.5;entryDx=0;entryDy=0;strokeWidth=5;shadow=0;sketch=1;curveFitting=1;jiggle=2;" edge="1" parent="1" source="pb-QOjSHvFlhCj56YCVK-23" target="pb-QOjSHvFlhCj56YCVK-24">
          <mxGeometry relative="1" as="geometry" />
        </mxCell>
        <mxCell id="pb-QOjSHvFlhCj56YCVK-23" value="&lt;font style=&quot;font-size: 30px;&quot;&gt;15.&amp;nbsp;Deploy API to Kubernetes with Rollback&lt;/font&gt;" style="shape=process;whiteSpace=wrap;html=1;backgroundOutline=1;sketch=1;curveFitting=1;jiggle=2;" vertex="1" parent="1">
          <mxGeometry x="900" y="-6160" width="540" height="180" as="geometry" />
        </mxCell>
        <mxCell id="pb-QOjSHvFlhCj56YCVK-24" value="&lt;font style=&quot;font-size: 30px;&quot;&gt;16.&amp;nbsp;Deploy Frontend to Kubernetes with Rollback&lt;/font&gt;" style="shape=process;whiteSpace=wrap;html=1;backgroundOutline=1;sketch=1;curveFitting=1;jiggle=2;" vertex="1" parent="1">
          <mxGeometry x="1640" y="-6160" width="540" height="180" as="geometry" />
        </mxCell>
        <mxCell id="pb-QOjSHvFlhCj56YCVK-54" style="edgeStyle=orthogonalEdgeStyle;rounded=0;orthogonalLoop=1;jettySize=auto;html=1;exitX=0.5;exitY=1;exitDx=0;exitDy=0;entryX=0.5;entryY=0;entryDx=0;entryDy=0;strokeWidth=5;sketch=1;curveFitting=1;jiggle=2;" edge="1" parent="1" source="pb-QOjSHvFlhCj56YCVK-25" target="pb-QOjSHvFlhCj56YCVK-26">
          <mxGeometry relative="1" as="geometry" />
        </mxCell>
        <mxCell id="pb-QOjSHvFlhCj56YCVK-25" value="&lt;font style=&quot;font-size: 30px;&quot;&gt;17.&amp;nbsp;Commit Updated API Deployment YAML&lt;/font&gt;" style="shape=process;whiteSpace=wrap;html=1;backgroundOutline=1;sketch=1;curveFitting=1;jiggle=2;" vertex="1" parent="1">
          <mxGeometry x="1650" y="-5880" width="540" height="180" as="geometry" />
        </mxCell>
        <mxCell id="pb-QOjSHvFlhCj56YCVK-55" style="edgeStyle=orthogonalEdgeStyle;rounded=0;orthogonalLoop=1;jettySize=auto;html=1;exitX=0.5;exitY=1;exitDx=0;exitDy=0;entryX=0.5;entryY=0;entryDx=0;entryDy=0;strokeWidth=5;sketch=1;curveFitting=1;jiggle=2;" edge="1" parent="1" source="pb-QOjSHvFlhCj56YCVK-26" target="pb-QOjSHvFlhCj56YCVK-27">
          <mxGeometry relative="1" as="geometry" />
        </mxCell>
        <mxCell id="pb-QOjSHvFlhCj56YCVK-26" value="&lt;font style=&quot;font-size: 30px;&quot;&gt;18.&amp;nbsp;Commit Frontend Deployment YAML&lt;/font&gt;" style="shape=process;whiteSpace=wrap;html=1;backgroundOutline=1;sketch=1;curveFitting=1;jiggle=2;" vertex="1" parent="1">
          <mxGeometry x="1650" y="-5610" width="540" height="180" as="geometry" />
        </mxCell>
        <mxCell id="pb-QOjSHvFlhCj56YCVK-56" style="edgeStyle=orthogonalEdgeStyle;rounded=0;orthogonalLoop=1;jettySize=auto;html=1;exitX=0.5;exitY=1;exitDx=0;exitDy=0;entryX=0.5;entryY=0;entryDx=0;entryDy=0;strokeWidth=5;sketch=1;curveFitting=1;jiggle=2;" edge="1" parent="1" source="pb-QOjSHvFlhCj56YCVK-27" target="pb-QOjSHvFlhCj56YCVK-30">
          <mxGeometry relative="1" as="geometry" />
        </mxCell>
        <mxCell id="pb-QOjSHvFlhCj56YCVK-27" value="&lt;font style=&quot;font-size: 30px;&quot;&gt;19.&amp;nbsp;Commit Frontend Deployment YAML&lt;/font&gt;" style="shape=process;whiteSpace=wrap;html=1;backgroundOutline=1;sketch=1;curveFitting=1;jiggle=2;" vertex="1" parent="1">
          <mxGeometry x="1650" y="-5330" width="540" height="180" as="geometry" />
        </mxCell>
        <mxCell id="pb-QOjSHvFlhCj56YCVK-30" value="&lt;font style=&quot;font-size: 30px;&quot;&gt;20.&amp;nbsp;Commit Frontend Deployment YAML&lt;/font&gt;" style="shape=process;whiteSpace=wrap;html=1;backgroundOutline=1;sketch=1;curveFitting=1;jiggle=2;" vertex="1" parent="1">
          <mxGeometry x="1650" y="-5040" width="540" height="180" as="geometry" />
        </mxCell>
        <mxCell id="pb-QOjSHvFlhCj56YCVK-31" value="&lt;font style=&quot;font-size: 30px;&quot;&gt;CI/CD Pipeline&lt;/font&gt;" style="rounded=0;whiteSpace=wrap;html=1;sketch=1;curveFitting=1;jiggle=2;" vertex="1" parent="1">
          <mxGeometry x="150" y="-6350" width="540" height="110" as="geometry" />
        </mxCell>
        <mxCell id="pb-QOjSHvFlhCj56YCVK-45" style="edgeStyle=orthogonalEdgeStyle;rounded=0;orthogonalLoop=1;jettySize=auto;html=1;entryX=0.52;entryY=0.996;entryDx=0;entryDy=0;entryPerimeter=0;strokeWidth=5;sketch=1;curveFitting=1;jiggle=2;" edge="1" parent="1" source="pb-QOjSHvFlhCj56YCVK-16" target="pb-QOjSHvFlhCj56YCVK-17">
          <mxGeometry relative="1" as="geometry" />
        </mxCell>
        <mxCell id="pb-QOjSHvFlhCj56YCVK-46" style="edgeStyle=orthogonalEdgeStyle;rounded=0;orthogonalLoop=1;jettySize=auto;html=1;strokeWidth=5;sketch=1;curveFitting=1;jiggle=2;" edge="1" parent="1">
          <mxGeometry relative="1" as="geometry">
            <mxPoint x="1179.37" y="-4450" as="sourcePoint" />
            <mxPoint x="1180.1" y="-4570" as="targetPoint" />
          </mxGeometry>
        </mxCell>
        <mxCell id="pb-QOjSHvFlhCj56YCVK-53" style="edgeStyle=orthogonalEdgeStyle;rounded=0;orthogonalLoop=1;jettySize=auto;html=1;exitX=0.5;exitY=1;exitDx=0;exitDy=0;entryX=0.481;entryY=-0.005;entryDx=0;entryDy=0;entryPerimeter=0;strokeWidth=5;sketch=1;curveFitting=1;jiggle=2;" edge="1" parent="1" source="pb-QOjSHvFlhCj56YCVK-24" target="pb-QOjSHvFlhCj56YCVK-25">
          <mxGeometry relative="1" as="geometry" />
        </mxCell>
        <mxCell id="pb-QOjSHvFlhCj56YCVK-57" value="&lt;font style=&quot;font-size: 30px;&quot;&gt;Dockerfiles&lt;/font&gt;" style="rounded=0;whiteSpace=wrap;html=1;sketch=1;curveFitting=1;jiggle=2;fillColor=#fff2cc;strokeColor=#d6b656;" vertex="1" parent="1">
          <mxGeometry x="110" y="-3650" width="530" height="140" as="geometry" />
        </mxCell>
        <mxCell id="pb-QOjSHvFlhCj56YCVK-58" value="" style="shape=flexArrow;endArrow=classic;html=1;rounded=0;endWidth=50;endSize=12.706666666666665;width=27.333333333333332;" edge="1" parent="1">
          <mxGeometry width="50" height="50" relative="1" as="geometry">
            <mxPoint x="280" y="-6500" as="sourcePoint" />
            <mxPoint x="300" y="-6390" as="targetPoint" />
          </mxGeometry>
        </mxCell>
        <mxCell id="pb-QOjSHvFlhCj56YCVK-60" value="&lt;font style=&quot;font-size: 30px;&quot;&gt;Frontend&lt;/font&gt;" style="rounded=1;whiteSpace=wrap;html=1;" vertex="1" parent="1">
          <mxGeometry x="110" y="-3410" width="210" height="100" as="geometry" />
        </mxCell>
        <mxCell id="pb-QOjSHvFlhCj56YCVK-61" value="&lt;font style=&quot;font-size: 30px;&quot;&gt;Backend&lt;/font&gt;" style="rounded=1;whiteSpace=wrap;html=1;" vertex="1" parent="1">
          <mxGeometry x="90" y="-980" width="200" height="100" as="geometry" />
        </mxCell>
        <mxCell id="pb-QOjSHvFlhCj56YCVK-62" value="&lt;font style=&quot;font-size: 30px;&quot;&gt;Stage 1: Build&lt;/font&gt;" style="shape=hexagon;perimeter=hexagonPerimeter2;whiteSpace=wrap;html=1;fixedSize=1;" vertex="1" parent="1">
          <mxGeometry x="110" y="-3260" width="330" height="90" as="geometry" />
        </mxCell>
        <mxCell id="pb-QOjSHvFlhCj56YCVK-63" value="&lt;font style=&quot;font-size: 30px;&quot;&gt;Stage 1: Serve&lt;/font&gt;" style="shape=hexagon;perimeter=hexagonPerimeter2;whiteSpace=wrap;html=1;fixedSize=1;" vertex="1" parent="1">
          <mxGeometry x="105" y="-2060" width="330" height="90" as="geometry" />
        </mxCell>
        <mxCell id="pb-QOjSHvFlhCj56YCVK-65" value="&lt;font style=&quot;font-size: 30px;&quot;&gt;0.&amp;nbsp;&lt;/font&gt;&lt;span style=&quot;font-size: 30px;&quot;&gt;Use the Node.js image (node:20.11.1-bullseye-slim)&lt;/span&gt;" style="shape=process;whiteSpace=wrap;html=1;backgroundOutline=1;sketch=1;curveFitting=1;jiggle=2;" vertex="1" parent="1">
          <mxGeometry x="110" y="-3130" width="1180" height="180" as="geometry" />
        </mxCell>
        <mxCell id="pb-QOjSHvFlhCj56YCVK-66" value="&lt;font style=&quot;font-size: 30px;&quot;&gt;6.&amp;nbsp;&lt;/font&gt;&lt;span style=&quot;background-color: initial; font-size: 30px;&quot;&gt;Build the app&amp;nbsp;&lt;/span&gt;&lt;div&gt;&lt;span style=&quot;background-color: initial; font-size: 30px;&quot;&gt;(pnpm run build --prod) =&amp;gt;&amp;nbsp;&lt;/span&gt;&lt;span style=&quot;background-color: initial; font-size: 30px;&quot;&gt;nx build eDB --prod&lt;/span&gt;&lt;/div&gt;" style="shape=process;whiteSpace=wrap;html=1;backgroundOutline=1;sketch=1;curveFitting=1;jiggle=2;" vertex="1" parent="1">
          <mxGeometry x="1460" y="-2260" width="1220" height="180" as="geometry" />
        </mxCell>
        <mxCell id="pb-QOjSHvFlhCj56YCVK-67" value="&lt;font style=&quot;font-size: 30px;&quot;&gt;4.&amp;nbsp;&lt;/font&gt;&lt;span style=&quot;font-size: 30px;&quot;&gt;Install dependencies&amp;nbsp;&lt;/span&gt;&lt;div&gt;&lt;span style=&quot;font-size: 30px;&quot;&gt;(&lt;/span&gt;&lt;span style=&quot;background-color: initial; font-size: 30px;&quot;&gt;RUN pnpm install --frozen-lockfile&lt;/span&gt;&lt;span style=&quot;font-size: 30px; background-color: initial;&quot;&gt;)&lt;/span&gt;&lt;/div&gt;" style="shape=process;whiteSpace=wrap;html=1;backgroundOutline=1;sketch=1;curveFitting=1;jiggle=2;" vertex="1" parent="1">
          <mxGeometry x="1455" y="-2840" width="1215" height="180" as="geometry" />
        </mxCell>
        <mxCell id="pb-QOjSHvFlhCj56YCVK-68" value="&lt;font style=&quot;font-size: 30px;&quot;&gt;0.&amp;nbsp;Use a lightweight NGINX image&amp;nbsp;&lt;/font&gt;&lt;div&gt;&lt;font style=&quot;font-size: 30px;&quot;&gt;(nginx:alpine)&lt;/font&gt;&lt;/div&gt;" style="shape=process;whiteSpace=wrap;html=1;backgroundOutline=1;sketch=1;curveFitting=1;jiggle=2;" vertex="1" parent="1">
          <mxGeometry x="120" y="-1900" width="1310" height="180" as="geometry" />
        </mxCell>
        <mxCell id="pb-QOjSHvFlhCj56YCVK-69" value="&lt;font style=&quot;&quot;&gt;&lt;span style=&quot;font-size: 30px;&quot;&gt;1. Copy built files from the builder stage to the NGINX web root&lt;/span&gt;&lt;/font&gt;&lt;div&gt;&lt;div&gt;&lt;font style=&quot;&quot;&gt;&lt;span style=&quot;font-size: 30px;&quot;&gt;(&lt;/span&gt;&lt;/font&gt;&lt;span style=&quot;background-color: initial; font-size: 30px;&quot;&gt;COPY --from=builder /app/dist/apps/eDB/browser /etc/nginx/html)&lt;/span&gt;&lt;/div&gt;&lt;/div&gt;" style="shape=process;whiteSpace=wrap;html=1;backgroundOutline=1;sketch=1;curveFitting=1;jiggle=2;" vertex="1" parent="1">
          <mxGeometry x="105" y="-1660" width="1330" height="180" as="geometry" />
        </mxCell>
        <mxCell id="pb-QOjSHvFlhCj56YCVK-70" value="&lt;font style=&quot;&quot;&gt;&lt;span style=&quot;font-size: 30px;&quot;&gt;2.&amp;nbsp;&lt;/span&gt;&lt;/font&gt;&lt;span style=&quot;font-size: 30px;&quot;&gt;Include a custom nginx.conf&lt;/span&gt;&lt;div&gt;&lt;span style=&quot;font-size: 30px;&quot;&gt;(&lt;/span&gt;&lt;span style=&quot;background-color: initial; font-size: 30px;&quot;&gt;COPY nginx.conf /etc/nginx/conf.d/default.conf)&lt;/span&gt;&lt;/div&gt;" style="shape=process;whiteSpace=wrap;html=1;backgroundOutline=1;sketch=1;curveFitting=1;jiggle=2;" vertex="1" parent="1">
          <mxGeometry x="100" y="-1440" width="1340" height="180" as="geometry" />
        </mxCell>
        <mxCell id="pb-QOjSHvFlhCj56YCVK-71" value="&lt;span style=&quot;font-size: 30px;&quot;&gt;3.Expose port 80 and serve the app using NGINX.&lt;/span&gt;" style="shape=process;whiteSpace=wrap;html=1;backgroundOutline=1;sketch=1;curveFitting=1;jiggle=2;" vertex="1" parent="1">
          <mxGeometry x="100" y="-1210" width="1340" height="180" as="geometry" />
        </mxCell>
        <mxCell id="pb-QOjSHvFlhCj56YCVK-72" value="&lt;font style=&quot;font-size: 30px;&quot;&gt;2.&amp;nbsp;&lt;/font&gt;&lt;span style=&quot;font-size: 30px;&quot;&gt;Install pnpm globally using npm&amp;nbsp;&lt;/span&gt;&lt;div&gt;&lt;span style=&quot;font-size: 30px;&quot;&gt;(&lt;/span&gt;&lt;span style=&quot;background-color: initial; font-size: 30px;&quot;&gt;RUN npm install -g pnpm&lt;/span&gt;&lt;span style=&quot;font-size: 30px; background-color: initial;&quot;&gt;)&lt;/span&gt;&lt;/div&gt;" style="shape=process;whiteSpace=wrap;html=1;backgroundOutline=1;sketch=1;curveFitting=1;jiggle=2;" vertex="1" parent="1">
          <mxGeometry x="110" y="-2590" width="1180" height="180" as="geometry" />
        </mxCell>
        <mxCell id="pb-QOjSHvFlhCj56YCVK-73" value="&lt;font style=&quot;font-size: 30px;&quot;&gt;3.&amp;nbsp;&lt;/font&gt;&lt;span style=&quot;font-size: 30px;&quot;&gt;Copy package.json and pnpm-lock.yaml first for better caching&lt;/span&gt;&lt;div&gt;&lt;span style=&quot;font-size: 30px;&quot;&gt;(&lt;/span&gt;&lt;span style=&quot;background-color: initial; font-size: 30px;&quot;&gt;COPY package.json pnpm-lock.yaml ./&lt;/span&gt;&lt;span style=&quot;background-color: initial; font-size: 30px;&quot;&gt;)&lt;/span&gt;&lt;/div&gt;" style="shape=process;whiteSpace=wrap;html=1;backgroundOutline=1;sketch=1;curveFitting=1;jiggle=2;" vertex="1" parent="1">
          <mxGeometry x="1450" y="-3130" width="1200" height="180" as="geometry" />
        </mxCell>
        <mxCell id="pb-QOjSHvFlhCj56YCVK-74" value="&lt;font style=&quot;font-size: 30px;&quot;&gt;1.&lt;/font&gt;&lt;span style=&quot;background-color: initial; font-size: 30px;&quot;&gt;&amp;nbsp;Set working directory&lt;/span&gt;&lt;span style=&quot;font-size: 30px;&quot;&gt;&amp;nbsp;&lt;/span&gt;&lt;div&gt;&lt;span style=&quot;font-size: 30px;&quot;&gt;(&lt;/span&gt;&lt;span style=&quot;background-color: initial; font-size: 30px;&quot;&gt;WORKDIR /app&lt;/span&gt;&lt;span style=&quot;background-color: initial; font-size: 30px;&quot;&gt;)&lt;/span&gt;&lt;/div&gt;" style="shape=process;whiteSpace=wrap;html=1;backgroundOutline=1;sketch=1;curveFitting=1;jiggle=2;" vertex="1" parent="1">
          <mxGeometry x="110" y="-2870" width="1180" height="180" as="geometry" />
        </mxCell>
        <mxCell id="pb-QOjSHvFlhCj56YCVK-75" value="&lt;font style=&quot;font-size: 30px;&quot;&gt;5.&amp;nbsp;Copy the rest of the application code&lt;/font&gt;&lt;span style=&quot;background-color: initial; font-size: 30px;&quot;&gt;&amp;nbsp;&lt;/span&gt;&lt;div&gt;&lt;span style=&quot;background-color: initial;&quot;&gt;&lt;span style=&quot;font-size: 30px;&quot;&gt;(COPY . .)&lt;/span&gt;&lt;/span&gt;&lt;/div&gt;" style="shape=process;whiteSpace=wrap;html=1;backgroundOutline=1;sketch=1;curveFitting=1;jiggle=2;" vertex="1" parent="1">
          <mxGeometry x="1460" y="-2550" width="1220" height="180" as="geometry" />
        </mxCell>
      </root>
    </mxGraphModel>
  </diagram>
</mxfile>
